<svg xmlns="http://www.w3.org/2000/svg" viewBox="0 0 24 24"><defs><style>.cls-1{fill:currentColor;}</style></defs><g id="Lag_2" data-name="Lag 2"><g id="Layer_1" data-name="Layer 1"><path class="cls-1" d="M9.3,6.19H1.49A1.49,1.49,0,0,1,0,4.71V1.49A1.49,1.49,0,0,1,1.49,0H9.3a1.49,1.49,0,0,1,1.48,1.49V4.71A1.48,1.48,0,0,1,9.3,6.19ZM1.85,4.34H8.94V1.85H1.85Z"/><path class="cls-1" d="M22.52,6.19H14.7a1.48,1.48,0,0,1-1.48-1.48V1.49A1.49,1.49,0,0,1,14.7,0h7.82A1.49,1.49,0,0,1,24,1.49V4.71A1.49,1.49,0,0,1,22.52,6.19ZM15.06,4.34h7.09V1.85H15.06Z"/><path class="cls-1" d="M9.3,15.1H1.49A1.49,1.49,0,0,1,0,13.61V10.39A1.49,1.49,0,0,1,1.49,8.9H9.3a1.49,1.49,0,0,1,1.48,1.49v3.22A1.49,1.49,0,0,1,9.3,15.1ZM1.85,13.25H8.94v-2.5H1.85Z"/><path class="cls-1" d="M22.52,15.1H14.7a1.49,1.49,0,0,1-1.48-1.49V10.39A1.49,1.49,0,0,1,14.7,8.9h7.82A1.49,1.49,0,0,1,24,10.39v3.22A1.49,1.49,0,0,1,22.52,15.1Zm-7.46-1.85h7.09v-2.5H15.06Z"/><path class="cls-1" d="M9.3,24H1.49A1.49,1.49,0,0,1,0,22.52V19.29a1.49,1.49,0,0,1,1.49-1.48H9.3a1.48,1.48,0,0,1,1.48,1.48v3.23A1.48,1.48,0,0,1,9.3,24ZM1.85,22.15H8.94V19.66H1.85Z"/><path class="cls-1" d="M22.52,24H14.7a1.48,1.48,0,0,1-1.48-1.48V19.29a1.48,1.48,0,0,1,1.48-1.48h7.82A1.49,1.49,0,0,1,24,19.29v3.23A1.49,1.49,0,0,1,22.52,24Zm-7.46-1.85h7.09V19.66H15.06Z"/></g></g></svg>
