<svg xmlns="http://www.w3.org/2000/svg" viewBox="0 0 17.88 16">
    <defs>
        <style>.cls-1{fill:currentColor;}</style>
    </defs>
    <g id="Lag_2" data-name="Lag 2">
        <g id="Layer_1" data-name="Layer 1">
            <path id="Path_43" data-name="Path 43" class="cls-1"
                  d="M1,8,7.88.68a.39.39,0,0,0,0-.56.39.39,0,0,0-.56,0h0L.12,7.72a.39.39,0,0,0,0,.56h0l7.2,7.6a.4.4,0,1,0,.56-.56Z"/>
            <g id="Line_28" data-name="Line 28">
                <path class="cls-1"
                      d="M17.5,8.38H.7A.37.37,0,0,1,.33,8,.36.36,0,0,1,.7,7.63H17.5a.37.37,0,0,1,.38.37A.38.38,0,0,1,17.5,8.38Z"/>
            </g>
        </g>
    </g>
</svg>
