<svg xmlns="http://www.w3.org/2000/svg" xmlns:xlink="http://www.w3.org/1999/xlink" viewBox="0 0 174 250.58">
    <defs>
        <style>
            .cls-1{fill:none;}.cls-2{fill:#2a8468;}.cls-3{fill:#3b9a80;}.cls-4{fill:#1e704e;}.cls-5{clip-path:url(#clip-path);}.cls-6{fill:#88c6b7;}.cls-7{fill:#a0d2c6;}
        </style>
        <clipPath id="clip-path">
            <rect class="cls-1" width="174" height="250.58"/>
        </clipPath>
    </defs>
    <g id="Lag_2" data-name="Lag 2">
        <g id="Layer_1" data-name="Layer 1">
            <g id="Mask_Group_137" data-name="Mask Group 137">
                <g id="Group_211" data-name="Group 211">
                    <rect id="Rectangle_1298" data-name="Rectangle 1298" class="cls-2" x="76.72" y="109.41" width="4.04"
                          height="6.77"/>
                    <rect id="Rectangle_1299" data-name="Rectangle 1299" class="cls-3" x="72.11" y="116.07"
                          width="13.26" height="4.11"/>
                    <rect id="Rectangle_1300" data-name="Rectangle 1300" class="cls-4" x="161.24" width="10.86"
                          height="120.68"/>
                    <rect id="Rectangle_1301" data-name="Rectangle 1301" class="cls-4" x="103.83" y="120.16"
                          width="57.58" height="10.86"/>
                    <g id="Group_204" data-name="Group 204">
                        <g class="cls-5">
                            <g id="Group_203" data-name="Group 203">
                                <path id="Path_97" data-name="Path 97" class="cls-2"
                                      d="M159.27,132.84h.2A14.53,14.53,0,0,0,174,118.32H159.27Z"/>
                            </g>
                        </g>
                    </g>
                    <rect id="Rectangle_1303" data-name="Rectangle 1303" class="cls-4" x="96.62" y="129.9" width="10.86"
                          height="120.68"/>
                    <g id="Group_206" data-name="Group 206">
                        <g class="cls-5">
                            <g id="Group_205" data-name="Group 205">
                                <path id="Path_98" data-name="Path 98" class="cls-2"
                                      d="M109.46,117.74h-.2a14.52,14.52,0,0,0-14.53,14.53h14.73Z"/>
                            </g>
                        </g>
                    </g>
                    <rect id="Rectangle_1305" data-name="Rectangle 1305" class="cls-2" y="98" width="120.68"
                          height="10.86"/>
                    <rect id="Rectangle_1306" data-name="Rectangle 1306" class="cls-2" x="120.16" y="108.7"
                          width="10.86" height="57.58"/>
                    <g id="Group_208" data-name="Group 208">
                        <g class="cls-5">
                            <g id="Group_207" data-name="Group 207">
                                <path id="Path_99" data-name="Path 99" class="cls-3"
                                      d="M132.84,110.83c0-.06,0-.13,0-.2A14.53,14.53,0,0,0,118.32,96.1v14.73Z"/>
                            </g>
                        </g>
                    </g>
                    <rect id="Rectangle_1308" data-name="Rectangle 1308" class="cls-3" x="74.16" y="95.13" width="9.25"
                          height="16.6"/>
                    <rect id="Rectangle_1309" data-name="Rectangle 1309" class="cls-3" x="26.47" y="95.13" width="9.25"
                          height="16.6"/>
                    <rect id="Rectangle_1310" data-name="Rectangle 1310" class="cls-6" x="48.98" y="60.45" width="10.86"
                          height="120.68"/>
                    <rect id="Rectangle_1311" data-name="Rectangle 1311" class="cls-6" x="39.99" y="124.32" width="9.15"
                          height="5.09"/>
                    <g id="Group_210" data-name="Group 210">
                        <g class="cls-5">
                            <g id="Group_209" data-name="Group 209">
                                <path id="Path_100" data-name="Path 100" class="cls-7"
                                      d="M42,120.49a3.18,3.18,0,1,1-3.18-3.17A3.17,3.17,0,0,1,42,120.49"/>
                                <path id="Path_101" data-name="Path 101" class="cls-7"
                                      d="M42,126.92a3.18,3.18,0,1,1-3.18-3.17A3.17,3.17,0,0,1,42,126.92"/>
                                <path id="Path_102" data-name="Path 102" class="cls-7"
                                      d="M42,133.27a3.18,3.18,0,1,1-3.18-3.18A3.17,3.17,0,0,1,42,133.27"/>
                            </g>
                        </g>
                    </g>
                    <rect id="Rectangle_1313" data-name="Rectangle 1313" class="cls-7" x="46.27" y="120.94"
                          width="16.44" height="11.98"/>
                </g>
            </g>
        </g>
    </g>
</svg>
