<svg xmlns="http://www.w3.org/2000/svg" viewBox="0 0 16 16">
    <defs>
        <style>.cls-1{fill:currentColor;}.cls-2{fill:#fff;}</style>
    </defs>
    <g id="Lag_2" data-name="Lag 2">
        <g id="Layer_1" data-name="Layer 1">
            <g id="Group_316" data-name="Group 316">
                <path id="Path_158" data-name="Path 158" class="cls-1" d="M8,0A8,8,0,1,1,0,8,8,8,0,0,1,8,0Z"/>
                <g id="Line_32" data-name="Line 32">
                    <path class="cls-2"
                          d="M11.33,12.33a1,1,0,0,1-.7-.29L4,5.37A1,1,0,0,1,5.37,4L12,10.63A1,1,0,0,1,12,12,1,1,0,0,1,11.33,12.33Z"/>
                </g>
                <g id="Line_33" data-name="Line 33">
                    <path class="cls-2"
                          d="M4.67,12.33A1,1,0,0,1,4,12a1,1,0,0,1,0-1.41L10.63,4A1,1,0,1,1,12,5.37L5.37,12A1,1,0,0,1,4.67,12.33Z"/>
                </g>
            </g>
        </g>
    </g>
</svg>
