<svg xmlns="http://www.w3.org/2000/svg" viewBox="0 0 26 34">
    <defs>
        <style>.cls-1{fill:currentColor;fill-rule:evenodd;}</style>
    </defs>
    <g id="Lag_2" data-name="Lag 2">
        <g id="Layer_1" data-name="Layer 1">
            <path class="cls-1"
                  d="M20.22,32.45V7.73a1.5,1.5,0,0,0-1.44-1.55H1.44A1.5,1.5,0,0,0,0,7.73V32.45A1.5,1.5,0,0,0,1.44,34H18.78a1.5,1.5,0,0,0,1.44-1.55m-18.78,0V7.73H18.78V32.45ZM7.22,3.86V1.55H24.56V26.27H22.39a.78.78,0,0,0,0,1.55h2.17A1.5,1.5,0,0,0,26,26.27V1.55A1.5,1.5,0,0,0,24.56,0H7.22A1.5,1.5,0,0,0,5.78,1.55V3.86a.72.72,0,1,0,1.44,0"/>
        </g>
    </g>
</svg>
