<svg xmlns="http://www.w3.org/2000/svg" viewBox="0 0 14.98 9.99"><defs><style>.cls-1{fill:currentColor;}</style></defs><g id="Lag_2" data-name="Lag 2"><g id="Layer_1" data-name="Layer 1"><g id="Group_132" data-name="Group 132"><path id="Path_69" data-name="Path 69" class="cls-1" d="M15,1.05a1,1,0,0,1-.26.67l-.06.07L6.44,9.67l-.06.05a1.11,1.11,0,0,1-1.47,0L.33,5.47A1,1,0,0,1,0,4.71a1.08,1.08,0,0,1,1.1-1h0A1.13,1.13,0,0,1,1.86,4l3.8,3.51L13.12.31l.06-.06A1.18,1.18,0,0,1,13.89,0,1.08,1.08,0,0,1,15,1.05Z"/></g></g></g></svg>
