<svg xmlns="http://www.w3.org/2000/svg" viewBox="0 0 22.59 24"><defs><style>.cls-1{fill:currentColor;fill-rule:evenodd;}</style></defs><g id="Lag_2" data-name="Lag 2"><g id="Layer_1" data-name="Layer 1"><path class="cls-1" d="M19,14.73a.53.53,0,0,0-.52.54v7.64H1V1.09H18.48V8.73a.52.52,0,1,0,1,0V.55A.53.53,0,0,0,19,0H.51A.53.53,0,0,0,0,.55v22.9A.53.53,0,0,0,.51,24H19a.53.53,0,0,0,.51-.55V15.27a.53.53,0,0,0-.51-.54m3.07-3.28H5.86L9.09,8a.56.56,0,0,0,.15-.38.51.51,0,0,0-.88-.39l-4.1,4.36a.58.58,0,0,0,0,.78l4.1,4.36a.51.51,0,0,0,.88-.39A.56.56,0,0,0,9.09,16L5.86,12.55H22.07a.55.55,0,0,0,0-1.1"/></g></g></svg>
