<svg xmlns="http://www.w3.org/2000/svg" viewBox="0 0 32 20"><defs>
    <style>.cls-1{fill:currentColor;fill-rule:evenodd;}</style>
</defs>
    <g id="Lag_2" data-name="Lag 2"><g id="Layer_1" data-name="Layer 1">
        <path class="cls-1" d="M16,7.86A2.14,2.14,0,1,0,18.18,10,2.16,2.16,0,0,0,16,7.86m0-5A7.2,7.2,0,0,0,8.73,10a7.27,7.27,0,0,0,14.54,0A7.2,7.2,0,0,0,16,2.86m0,12.85A5.76,5.76,0,0,1,10.18,10a5.82,5.82,0,0,1,11.64,0A5.76,5.76,0,0,1,16,15.71M16,0C7.16,0,0,7.14,0,10S7.16,20,16,20s16-7.14,16-10S24.84,0,16,0m0,18.57C8,18.57,1.46,12.45,1.46,10S8,1.43,16,1.43,30.55,7.55,30.55,10,24,18.57,16,18.57"/>
    </g>
    </g>
</svg>
