<svg xmlns="http://www.w3.org/2000/svg" viewBox="0 0 32 22">
    <defs>
        <style>.cls-1{fill:currentColor;fill-rule:evenodd;}</style>
    </defs>
    <g id="Lag_2" data-name="Lag 2">
        <g id="Layer_1" data-name="Layer 1">
            <path class="cls-1"
                  d="M16,8.64A2.28,2.28,0,0,0,13.82,11,2.28,2.28,0,0,0,16,13.36,2.28,2.28,0,0,0,18.18,11,2.28,2.28,0,0,0,16,8.64m0-5.5c-4,0-7.27,3.52-7.27,7.86S12,18.86,16,18.86s7.27-3.52,7.27-7.86S20,3.14,16,3.14m0,14.15A6.07,6.07,0,0,1,10.18,11,6.07,6.07,0,0,1,16,4.71,6.07,6.07,0,0,1,21.82,11,6.07,6.07,0,0,1,16,17.29M16,0C7.16,0,0,7.86,0,11S7.16,22,16,22s16-7.86,16-11S24.84,0,16,0m0,20.43C8,20.43,1.46,13.69,1.46,11S8,1.57,16,1.57,30.55,8.31,30.55,11,24,20.43,16,20.43"/>
        </g>
    </g>
</svg>
