<svg xmlns="http://www.w3.org/2000/svg" viewBox="0 0 24 24"><defs><style>.cls-1{fill:currentColor;fill-rule:evenodd;}</style></defs><g id="Lag_2" data-name="Lag 2"><g id="Layer_1" data-name="Layer 1"><path class="cls-1" d="M23.84,11.61,20.57,8.34a.55.55,0,0,0-.39-.16.55.55,0,0,0-.54.55.53.53,0,0,0,.16.38l2.34,2.34H12.55V1.86L14.89,4.2a.53.53,0,0,0,.38.16.55.55,0,0,0,.55-.54.55.55,0,0,0-.16-.39L12.39.16a.56.56,0,0,0-.78,0L8.34,3.43a.55.55,0,0,0-.16.39.55.55,0,0,0,.55.54.53.53,0,0,0,.38-.16l2.34-2.34v9.59H1.86L4.2,9.11a.53.53,0,0,0,.16-.38.55.55,0,0,0-.54-.55.55.55,0,0,0-.39.16L.16,11.61a.56.56,0,0,0,0,.78l3.27,3.27a.55.55,0,0,0,.39.16.55.55,0,0,0,.54-.55.53.53,0,0,0-.16-.38L1.86,12.55h9.59v9.59L9.11,19.8a.53.53,0,0,0-.38-.16.55.55,0,0,0-.55.54.55.55,0,0,0,.16.39l3.27,3.27a.56.56,0,0,0,.78,0l3.27-3.27a.55.55,0,0,0,.16-.39.55.55,0,0,0-.55-.54.53.53,0,0,0-.38.16l-2.34,2.34V12.55h9.59L19.8,14.89a.53.53,0,0,0-.16.38.55.55,0,0,0,.54.55.55.55,0,0,0,.39-.16l3.27-3.27a.56.56,0,0,0,0-.78"/></g></g></svg>
