<svg xmlns="http://www.w3.org/2000/svg" viewBox="0 0 32.01 20">
    <defs>
        <style>.cls-1,.cls-2{fill:currentColor;}.cls-1{fill-rule:evenodd;}</style>
    </defs>
    <g id="Lag_2" data-name="Lag 2">
        <g id="Layer_1" data-name="Layer 1">
            <path class="cls-1" d="M16,7.86A2.14,2.14,0,1,0,18.2,10,2.16,2.16,0,0,0,16,7.86m0-5A7.21,7.21,0,0,0,8.74,10a7.28,7.28,0,0,0,14.55,0A7.21,7.21,0,0,0,16,2.86m0,12.85A5.71,5.71,0,1,1,21.83,10,5.76,5.76,0,0,1,16,15.71M16,0C7.18,0,0,7.14,0,10S7.18,20,16,20s16-7.14,16-10S24.85,0,16,0m0,18.57C8,18.57,1.47,12.45,1.47,10S8,1.43,16,1.43,30.56,7.55,30.56,10,24.05,18.57,16,18.57"/>
            <path class="cls-2" d="M.75,20a.75.75,0,0,1-.62-.3.64.64,0,0,1,.2-.94L30.76.18a.8.8,0,0,1,1,.18.65.65,0,0,1-.21,1L1.16,19.88A.74.74,0,0,1,.75,20Z"/>
        </g>
    </g>
</svg>
