<svg xmlns="http://www.w3.org/2000/svg" viewBox="0 0 32 17.44"><defs><style>.cls-1{fill:currentColor;fill-rule:evenodd;}</style></defs><g id="Lag_2" data-name="Lag 2"><g id="Layer_1" data-name="Layer 1"><path class="cls-1" d="M13.82,10.9h1.45V9.44H13.82Zm2.91,0h1.45V9.44H16.73ZM13.82,3.63H12.36V5.09h1.46Zm2.91,2.91H15.27V8h1.46Zm-2.91,0H12.36V8h1.46ZM10.91,3.63H9.45V5.09h1.46Zm0,2.91H9.45V8h1.46Zm0,4.36h1.45V9.44H10.91ZM8,3.63H6.55V5.09H8Zm8.73,0H15.27V5.09h1.46Zm8.72,0H24V5.09h1.45Zm-2.9,0H21.09V5.09h1.46Zm2.9,2.91H24V8h1.45Zm-2.9,0H21.09V8h1.46Zm-2.91,0H18.18V8h1.46Zm0-2.91H18.18V5.09h1.46Zm7.27,1.46h1.45V3.63H26.91ZM24,9.44H22.55V10.9H24Zm2.91,4.36h1.45V12.35H26.91ZM24,13.8h1.45V12.35H24Zm-2.91,0h1.46V12.35H21.09Zm4.36-2.9h2.91V9.44H25.45ZM29.09,0H2.91A2.91,2.91,0,0,0,0,2.91V14.53a2.91,2.91,0,0,0,2.91,2.91H29.09A2.91,2.91,0,0,0,32,14.53V2.91A2.91,2.91,0,0,0,29.09,0m1.46,14.53A1.46,1.46,0,0,1,29.09,16H2.91a1.45,1.45,0,0,1-1.46-1.45V2.91A1.46,1.46,0,0,1,2.91,1.45H29.09a1.46,1.46,0,0,1,1.46,1.46ZM21.09,9.44H19.64V10.9h1.45ZM8,6.54H6.55V8H8ZM26.91,8h1.45V6.54H26.91ZM9.45,13.8H19.64V12.35H9.45ZM5.09,6.54H3.64V8H5.09Zm0-2.91H3.64V5.09H5.09ZM6.55,9.44H3.64V10.9H6.55ZM3.64,13.8H5.09V12.35H3.64ZM9.45,9.44H8V10.9H9.45ZM6.55,13.8H8V12.35H6.55Z"/></g></g></svg>
