<svg xmlns="http://www.w3.org/2000/svg" viewBox="0 0 66.83 24.08"><defs><style>.cls-1{fill:currentColor;fill-rule:evenodd;}.cls-2{fill:none;stroke:#000;stroke-linecap:round;stroke-miterlimit:10;}</style></defs><g id="Lag_2" data-name="Lag 2"><g id="Layer_1" data-name="Layer 1"><path class="cls-1" d="M63.91,0H37.64a3,3,0,0,0-2.92,3V21.07a3,3,0,0,0,2.92,3H63.91a3,3,0,0,0,2.92-3V3a3,3,0,0,0-2.92-3M37.64,1.51H63.91a1.37,1.37,0,0,1,.49.09l-12.64,13a1.34,1.34,0,0,1-2,0L37.15,1.6a1.37,1.37,0,0,1,.49-.09M36.18,21.07V3a1.09,1.09,0,0,1,0-.26l9,9.29-9,9.29a1.09,1.09,0,0,1,0-.26m27.73,1.51H37.64a1.38,1.38,0,0,1-.49-.1l9.1-9.38,2.5,2.59a2.81,2.81,0,0,0,4,0l2.5-2.59,9.1,9.38a1.38,1.38,0,0,1-.49.1m1.46-1.51a1.09,1.09,0,0,1,0,.26l-9-9.29,9-9.29a1.09,1.09,0,0,1,0,.26Z"/><path class="cls-2" d="M.5,1.42c4.28,0,4.28,5.14,8.56,5.14s4.28-5.14,8.57-5.14,4.28,5.14,8.56,5.14"/><path class="cls-2" d="M.5,9.47c4.28,0,4.28,5.14,8.56,5.14s4.28-5.14,8.57-5.14,4.28,5.14,8.56,5.14"/><path class="cls-2" d="M.5,17.52c4.28,0,4.28,5.14,8.56,5.14s4.28-5.14,8.57-5.14,4.28,5.14,8.56,5.14"/></g></g></svg>
