<svg xmlns="http://www.w3.org/2000/svg" viewBox="0 0 32 32"><defs></defs><g id="Lag_2" data-name="Lag 2"><g id="Layer_1" data-name="Layer 1"><path class="cls-1" d="M16,0A16,16,0,1,0,32,16,16,16,0,0,0,16,0m0,30.55A14.55,14.55,0,1,1,30.55,16,14.56,14.56,0,0,1,16,30.55m-.92-7.28h2V20.85h-2ZM19.25,9.72A4.2,4.2,0,0,0,17.89,9a5.65,5.65,0,0,0-3.62.1,4.49,4.49,0,0,0-1.5,1,4,4,0,0,0-.93,1.51,5.68,5.68,0,0,0-.31,1.94v.17h1.63v-.18a4.39,4.39,0,0,1,.17-1.34,3.09,3.09,0,0,1,.57-1.06,2.65,2.65,0,0,1,1-.7,3.35,3.35,0,0,1,1.35-.26,2.75,2.75,0,0,1,1,.19,2.7,2.7,0,0,1,.86.5,2.34,2.34,0,0,1,.58.77,2.31,2.31,0,0,1,.21,1,2.46,2.46,0,0,1-.34,1.29,4.88,4.88,0,0,1-.9,1.09c-.43.37-.8.72-1.1,1a4.15,4.15,0,0,0-.75,1,3.77,3.77,0,0,0-.41,1.14,7,7,0,0,0-.11,1.54v.18H16.9v-.18c0-.59,0-1.05.08-1.36a2.15,2.15,0,0,1,.22-.74,2.55,2.55,0,0,1,.52-.62l1-1A7.3,7.3,0,0,0,20,14.45a3.48,3.48,0,0,0,.52-1.95,3.54,3.54,0,0,0-.34-1.59,3.38,3.38,0,0,0-.92-1.19"/></g></g></svg>
