<svg xmlns="http://www.w3.org/2000/svg" viewBox="0 0 25.5 24"><defs><style>.cls-1{fill:currentColor;fill-rule:evenodd;}</style></defs><g id="Lag_2" data-name="Lag 2"><g id="Layer_1" data-name="Layer 1"><path class="cls-1" d="M25.5,4.36H20.86L19.13,0,17.39,4.36H12.75l3.77,2.73L14.78,12l4.35-3,4.34,3L21.73,7.09ZM19.81,8.12l-.68-.47-.69.47L17,9.09l.59-1.65.26-.74-.66-.47-1.07-.78h2l.28-.71.66-1.64.65,1.64.28.71h2L21,6.23l-.66.47.26.74.59,1.65Zm-8.75,5.5-2.37-6-2.37,6H0l5.14,3.69L2.77,24l5.92-4.09L14.62,24l-2.37-6.69,5.14-3.69Zm.09,4,1.22,3.44L9.38,19l-.69-.47L8,19,5,21.09l1.22-3.44.26-.74-.66-.47L3.43,14.71h3.7L7.41,14l1.28-3.24L10,14l.28.71H14l-2.4,1.73-.66.47Z"/></g></g></svg>
