<?xml version="1.0" encoding="UTF-8" standalone="no"?>
<svg
   xmlns="http://www.w3.org/2000/svg"
   viewBox="0 0 25 24"
   version="1.1"
   id="svg8">
  <defs
     id="defs2">
    <clipPath
       clipPathUnits="userSpaceOnUse"
       id="clipPath18">
      <path
         d="M 0,2237.763 H 1309.223 V 0 H 0 Z"
         id="path16" />
    </clipPath>
  </defs>
  <g
     id="layer1"
     transform="translate(82.817906,166.96619)">
    <g
       id="g14"
       clip-path="url(#clipPath18)"
       transform="matrix(0.35277777,0,0,-0.35277777,-360.85018,487.7443)">
      <g
         id="g236"
         transform="matrix(2.0918561,0,0,2.1305028,847.93335,1841.926)">
        <path
           d="m 0,0 h -13.91 c -0.427,0 -0.774,-0.324 -0.774,-0.726 0,-0.403 0.347,-0.728 0.774,-0.728 H 0 c 0.426,0 0.772,0.325 0.772,0.728 C 0.772,-0.324 0.426,0 0,0 m 3.862,-22.543 c 0,-0.805 -0.692,-1.456 -1.546,-1.456 H -25.5 c -0.855,0 -1.546,0.651 -1.546,1.456 v 26.18 c 0,0.803 0.691,1.455 1.546,1.455 H 2.316 C 3.17,5.092 3.862,4.44 3.862,3.637 Z M 2.316,6.546 H -25.5 c -1.708,0 -3.092,-1.301 -3.092,-2.909 v -26.18 c 0,-1.608 1.384,-2.911 3.092,-2.911 H 2.316 c 1.708,0 3.092,1.303 3.092,2.911 v 26.18 c 0,1.608 -1.384,2.909 -3.092,2.909 M 0,-8.728 h -13.91 c -0.427,0 -0.774,-0.324 -0.774,-0.726 0,-0.402 0.347,-0.727 0.774,-0.727 H 0 c 0.426,0 0.772,0.325 0.772,0.727 0,0.402 -0.346,0.726 -0.772,0.726 m -20.021,-8.659 -0.843,2.115 -0.843,-2.115 h -2.249 l 1.827,-1.323 -0.842,-2.38 2.107,1.454 2.107,-1.454 -0.843,2.38 1.827,1.323 z m -0.843,10.844 -0.843,-2.118 h -2.249 l 1.827,-1.321 -0.842,-2.381 2.107,1.455 2.107,-1.455 -0.843,2.381 1.827,1.321 h -2.248 z m 0,8.727 -0.843,-2.118 h -2.249 l 1.827,-1.321 -0.842,-2.381 2.107,1.455 2.107,-1.455 -0.843,2.381 1.827,1.321 h -2.248 z M 0,-17.454 h -13.91 c -0.427,0 -0.774,-0.325 -0.774,-0.727 0,-0.402 0.347,-0.727 0.774,-0.727 H 0 c 0.426,0 0.772,0.325 0.772,0.727 0,0.402 -0.346,0.727 -0.772,0.727"
           style="fill:#231f20;fill-opacity:1;fill-rule:evenodd;stroke:none"
           id="path238" />
      </g>
    </g>
  </g>
</svg>
