<svg xmlns="http://www.w3.org/2000/svg" viewBox="0 0 24 24">
    <defs>
        <style>.cls-1,.cls-2{fill:currentColor;}.cls-1{fill-rule:evenodd;}</style>
    </defs>
    <g id="Lag_2" data-name="Lag 2">
        <g id="Layer_1" data-name="Layer 1">
            <path class="cls-1"
                  d="M24,2.32v2.6l-.1-.11-.23-.19A2.56,2.56,0,0,0,23,4.26l-.3-.1a3.9,3.9,0,0,0-.5,0h-.05V2.32a.48.48,0,0,0-.47-.47H2.32a.48.48,0,0,0-.47.47v1.8H1.8a3.6,3.6,0,0,0-.49,0l-.3.1a2.46,2.46,0,0,0-.68.36,1.21,1.21,0,0,0-.2.19L0,5V2.32A2.32,2.32,0,0,1,2.32,0H21.68A2.32,2.32,0,0,1,24,2.32Z"/>
            <path class="cls-2"
                  d="M24,8.28v2l-.1-.11L23.67,10A2.56,2.56,0,0,0,23,9.66l-.3-.1a3.9,3.9,0,0,0-.5,0h-.05V8.28a.47.47,0,0,0-.47-.47H2.32a.48.48,0,0,0-.47.47V9.52H1.8a3.6,3.6,0,0,0-.49,0,2.11,2.11,0,0,0-.3.1A2.46,2.46,0,0,0,.33,10a1.21,1.21,0,0,0-.2.19L0,10.35V8.28A2.31,2.31,0,0,1,1.85,6a2.26,2.26,0,0,1,.47,0H21.68a2.26,2.26,0,0,1,.47,0A2.31,2.31,0,0,1,24,8.28Z"/>
            <path class="cls-2"
                  d="M23.29,12l-.21-.17a2.62,2.62,0,0,0-.64-.34,2,2,0,0,0-.29-.08,2.26,2.26,0,0,0-.47-.05H2.32a2.26,2.26,0,0,0-.47.05,2,2,0,0,0-.29.08,2.45,2.45,0,0,0-.64.34A1,1,0,0,0,.73,12,2.29,2.29,0,0,0,0,13.68v8A2.32,2.32,0,0,0,2.32,24H21.68a2.28,2.28,0,0,0,2.14-1.45,2.12,2.12,0,0,0,.18-.87v-8A2.36,2.36,0,0,0,23.29,12ZM1.85,13.68a.48.48,0,0,1,.47-.47H21.68a.47.47,0,0,1,.47.47v8a.47.47,0,0,1-.47.47H2.32a.48.48,0,0,1-.47-.47Z"/>
        </g>
    </g>
</svg>
