<svg xmlns="http://www.w3.org/2000/svg" viewBox="0 0 24 24"><defs><style>.cls-1{fill:currentColor;}</style></defs><g id="Lag_2" data-name="Lag 2"><g id="Layer_1" data-name="Layer 1"><path class="cls-1" d="M24,2V3.82a2.05,2.05,0,0,0-.48-.22,2.21,2.21,0,0,0-.38-.11.78.78,0,0,0-.22,0V2a.91.91,0,0,0-.91-.9H2a.91.91,0,0,0-.9.9V3.46a2.13,2.13,0,0,0-.25,0l-.34.1a2.84,2.84,0,0,0-.5.23V2A2,2,0,0,1,2,0H22A2,2,0,0,1,24,2Z"/><path class="cls-1" d="M24,8.15V9.4a2.5,2.5,0,0,0-.48-.21,1.55,1.55,0,0,0-.38-.12.78.78,0,0,0-.22,0V8.15a.91.91,0,0,0-.91-.9H2a.92.92,0,0,0-.9.9V9a2.13,2.13,0,0,0-.25,0,1.94,1.94,0,0,0-.34.11A3.78,3.78,0,0,0,0,9.4V8.15A2,2,0,0,1,.8,6.57a1.88,1.88,0,0,1,.77-.36,2.06,2.06,0,0,1,.42,0H22a1.95,1.95,0,0,1,1.2.4A1.94,1.94,0,0,1,24,8.15Z"/><path class="cls-1" d="M23.39,12.29a1,1,0,0,0-.15-.11,1.87,1.87,0,0,0-.56-.31.72.72,0,0,0-.25-.08,2.06,2.06,0,0,0-.42,0H2a2.06,2.06,0,0,0-.42,0,.52.52,0,0,0-.21.07,2,2,0,0,0-.56.28,1.24,1.24,0,0,0-.15.13A2,2,0,0,0,0,13.74V22a1.93,1.93,0,0,0,.13.73A2,2,0,0,0,2,24H22a1.94,1.94,0,0,0,1.83-1.24A1.71,1.71,0,0,0,24,22V13.74A2,2,0,0,0,23.39,12.29ZM22.92,22a.9.9,0,0,1-.91.9H2a.91.91,0,0,1-.9-.9V13.74a.91.91,0,0,1,.9-.9H22a.9.9,0,0,1,.91.9Z"/></g></g></svg>
