<svg xmlns="http://www.w3.org/2000/svg" viewBox="0 0 24 24" width="24px" height="24px">
    <defs>
        <style>
            .cls-1, .cls-2 {
                fill: none;
            }

            .cls-2 {
                fill:currentColor;
                fill-opacity:1;
                fill-rule:evenodd;
                stroke:none
            }
        </style>
    </defs>
    <g id="Bounding_Box">
        <rect class="cls-1" width="24" height="24"/>
    </g>
    <path class="cls-2" xmlns="http://www.w3.org/2000/svg" d="M 0,0 C 0.401,0 0.726,0.325 0.726,0.726 0.726,1.127 0.401,1.453 0,1.453 H -2.182 V 18.908 H 21.09 v -2.182 c 0,-0.401 0.325,-0.726 0.728,-0.726 0.401,0 0.727,0.325 0.727,0.726 v 2.182 c 0,0.803 -0.652,1.455 -1.455,1.455 H -2.182 c -0.803,0 -1.455,-0.652 -1.455,-1.455 V -4.364 c 0,-0.803 0.652,-1.455 1.455,-1.455 H 0 c 0.401,0 0.726,0.326 0.726,0.727 0,0.402 -0.325,0.728 -0.726,0.728 H -2.182 V 0 Z M 26.908,-4.364 H 3.635 v 17.455 h 23.273 z m 0,-5.818 H 3.635 v 4.363 h 23.273 z m 0,24.727 H 3.635 c -0.802,0 -1.454,-0.651 -1.454,-1.455 v -23.272 c 0,-0.803 0.652,-1.455 1.454,-1.455 h 23.273 c 0.803,0 1.455,0.652 1.455,1.455 V 13.09 c 0,0.804 -0.652,1.455 -1.455,1.455" style=""/>
</svg>

