<svg xmlns="http://www.w3.org/2000/svg" viewBox="0 0 25.5 24"><defs><style>.cls-1{fill:currentColor;fill-rule:evenodd;}</style></defs><g id="Lag_2" data-name="Lag 2"><g id="Layer_1" data-name="Layer 1"><path class="cls-1" d="M9.27,13.09H2.32A2.26,2.26,0,0,0,0,15.27v6.55A2.26,2.26,0,0,0,2.32,24h7a2.26,2.26,0,0,0,2.32-2.18V15.27a2.26,2.26,0,0,0-2.32-2.18m1.16,8.73a1.13,1.13,0,0,1-1.16,1.09H2.32a1.13,1.13,0,0,1-1.16-1.09V15.27a1.13,1.13,0,0,1,1.16-1.09h7a1.13,1.13,0,0,1,1.16,1.09ZM9.27,0H2.32A2.26,2.26,0,0,0,0,2.18V8.73a2.26,2.26,0,0,0,2.32,2.18h7a2.26,2.26,0,0,0,2.32-2.18V2.18A2.26,2.26,0,0,0,9.27,0m1.16,8.73A1.13,1.13,0,0,1,9.27,9.82H2.32A1.13,1.13,0,0,1,1.16,8.73V2.18A1.13,1.13,0,0,1,2.32,1.09h7a1.13,1.13,0,0,1,1.16,1.09ZM23.18,0H16.23a2.26,2.26,0,0,0-2.32,2.18V8.73a2.26,2.26,0,0,0,2.32,2.18h7A2.26,2.26,0,0,0,25.5,8.73V2.18A2.26,2.26,0,0,0,23.18,0m1.16,8.73a1.13,1.13,0,0,1-1.16,1.09H16.23a1.13,1.13,0,0,1-1.16-1.09V2.18a1.13,1.13,0,0,1,1.16-1.09h7a1.13,1.13,0,0,1,1.16,1.09Zm-1.16,4.36H16.23a2.26,2.26,0,0,0-2.32,2.18v6.55A2.26,2.26,0,0,0,16.23,24h7a2.26,2.26,0,0,0,2.32-2.18V15.27a2.26,2.26,0,0,0-2.32-2.18m1.16,8.73a1.13,1.13,0,0,1-1.16,1.09H16.23a1.13,1.13,0,0,1-1.16-1.09V15.27a1.13,1.13,0,0,1,1.16-1.09h7a1.13,1.13,0,0,1,1.16,1.09Z"/></g></g></svg>
