<svg xmlns="http://www.w3.org/2000/svg" viewBox="0 0 24 24"><defs><style>.cls-1{fill:currentColor;fill-rule:evenodd;}</style></defs><g id="Lag_2" data-name="Lag 2"><g id="Layer_1" data-name="Layer 1"><path class="cls-1" d="M15.27,9.82H10.91V5.45a.55.55,0,0,0-1.09,0V9.82H5.45a.55.55,0,0,0,0,1.09H9.82v4.36a.55.55,0,1,0,1.09,0V10.91h4.36a.55.55,0,1,0,0-1.09m8.57,13.25-5.78-5.78a10.4,10.4,0,1,0-.77.77l5.78,5.78a.53.53,0,0,0,.38.16.54.54,0,0,0,.55-.55.53.53,0,0,0-.16-.38M10.36,19.64a9.28,9.28,0,1,1,9.28-9.28,9.28,9.28,0,0,1-9.28,9.28"/></g></g></svg>
