<svg xmlns="http://www.w3.org/2000/svg" viewBox="0 0 24 24"><defs><style>.cls-1{fill:currentColor;fill-rule:evenodd;}</style></defs><g id="Lag_2" data-name="Lag 2"><g id="Layer_1" data-name="Layer 1"><path class="cls-1" d="M18,9.82a.55.55,0,0,0-.39.16L12,15.08,6.39,10A.55.55,0,0,0,6,9.82a.55.55,0,0,0-.55.54.6.6,0,0,0,.16.39l6,5.45a.56.56,0,0,0,.78,0l6-5.45a.6.6,0,0,0,.16-.39A.55.55,0,0,0,18,9.82M12,0A12,12,0,1,0,24,12,12,12,0,0,0,12,0m0,22.91A10.91,10.91,0,1,1,22.91,12,10.9,10.9,0,0,1,12,22.91"/></g></g></svg>
