<svg xmlns="http://www.w3.org/2000/svg" viewBox="0 0 729.08 177.65">
    <defs>
        <style>.cls-1{fill:#231f20;}</style>
    </defs>
    <title>Eficode_text_logo_black</title>
    <g id="Layer_2" data-name="Layer 2">
        <g id="Layer_1-2" data-name="Layer 1">
            <path class="cls-1"
                  d="M59.49,164.12A227,227,0,0,0,102.65,160L105,172.44s-17.11,5.2-44.48,5.2C20.27,177.65,0,170.36,0,115.48,0,99.1,2.37,83.75,6.32,74.65c7.11-16.39,22.9-21.33,51.06-21.33,21.85,0,37.64,2.34,45.8,12.22,6.58,8.32,9.21,19.77,9.21,40.05,0,4.68-.26,9.1-.53,14-4.47.26-21.06,2.08-40.8,2.08-19,0-36.32-1-36.32-1l-8.16-5.46c-1.58-1-2.63-1.82-4.74-1.82-5,0-4.47,4.68-4.47,8.06,0,10.92.26,24.71,7.9,33C31.59,161.52,43.17,164.12,59.49,164.12ZM59,66.32c-38.69,0-39.75,6.76-41.33,40.32C35.8,109.5,57.12,109,57.12,109s21.85.52,37.64-1C94.76,70.23,87.39,66.32,59,66.32Z"/>
            <path class="cls-1"
                  d="M202.4,13.79a155.94,155.94,0,0,0-16.58-1c-8.16,0-16.32.52-20,4.42-3.95,4.42-4.47,12.75-4.47,21.59V54.88H200V67.62H161.35v91.81c0,3.38.52,4.16,3.68,4.68l6.85,1.3v10.41H134.23V165.68l6.84-1.3c3.16-.78,3.68-1.56,3.68-4.68V67.62H121.6V54.88h23.16V38.49c0-13,.79-25.49,11.85-33C163.19.78,173.72,0,183.45,0a142.38,142.38,0,0,1,20,1.82Z"/>
            <path class="cls-1"
                  d="M215,175.83V165.68l6.84-1.3c3.16-.78,3.69-1.56,3.69-4.68V71.27c0-3.38-.52-4.16-3.69-4.68L215,65.28V54.88h27.11V159.44c0,3.38.53,4.16,3.69,4.68l6.84,1.3v10.41Zm5.53-153.46V2.6h20.79V22.37Z"/>
            <path class="cls-1"
                  d="M361.91,58.52,359.8,70.75a204.49,204.49,0,0,0-38.43-4.16c-33.43,0-40.8,7.28-40.8,48.9s7.37,48.9,40.8,48.9a204.44,204.44,0,0,0,38.43-4.16l2.11,12.22a195.29,195.29,0,0,1-43.17,5.2c-41.06,0-55.54-10.92-55.54-62.16s14.48-62.16,55.54-62.16A195.32,195.32,0,0,1,361.91,58.52Z"/>
            <path class="cls-1"
                  d="M428.76,177.65c-47.12,0-55.54-10.92-55.54-62.16s8.42-62.16,55.54-62.16,55.54,10.92,55.54,62.16S475.88,177.65,428.76,177.65Zm0-111.32c-34.75,0-38.17,5.2-38.17,49.16s3.42,49.16,38.17,49.16,38.17-5.2,38.17-49.16S463.5,66.32,428.76,66.32Z"/>
            <path class="cls-1"
                  d="M587.47,175.83l-1.05-6.5c-.26-1.56-.79-4.16-4.48-4.16-1.84,0-3.69,1.3-5.26,2.34L564,175.83a139.35,139.35,0,0,1-22.37,1.82c-40,0-46.59-25.49-46.59-62.16,0-35.37,6.32-62.16,48.7-62.16a227.47,227.47,0,0,1,42.11,4.16V19c0-3.38-.52-4.16-3.68-4.68L575.37,13V2.6h27.11V159.44c0,3.38.53,4.16,3.68,4.68l6.84,1.3v10.41ZM585.89,69.71a264,264,0,0,0-36.59-3.12c-30.53,0-36.85,10.14-36.85,48.9,0,39,6.32,48.64,36.85,48.64,18.43,0,36.59-5.2,36.59-5.2Z"/>
            <path class="cls-1"
                  d="M676.17,164.12A227,227,0,0,0,719.34,160l2.37,12.48s-17.11,5.2-44.48,5.2c-40.27,0-60.54-7.28-60.54-62.16,0-16.39,2.37-31.73,6.32-40.83,7.11-16.39,22.9-21.33,51.06-21.33,21.85,0,37.64,2.34,45.8,12.22,6.58,8.32,9.21,19.77,9.21,40.05,0,4.68-.26,9.1-.53,14-4.48.26-21.06,2.08-40.8,2.08-19,0-36.33-1-36.33-1l-8.16-5.46c-1.58-1-2.63-1.82-4.74-1.82-5,0-4.47,4.68-4.47,8.06,0,10.92.26,24.71,7.9,33C648.27,161.52,659.85,164.12,676.17,164.12Zm-.53-97.8c-38.69,0-39.75,6.76-41.32,40.32C652.48,109.5,673.8,109,673.8,109s21.85.52,37.64-1C711.44,70.23,704.07,66.32,675.65,66.32Z"/>
        </g>
    </g>
</svg>
