<?xml version="1.0" encoding="utf-8"?>
<!-- Generator: Adobe Illustrator 24.3.0, SVG Export Plug-In . SVG Version: 6.00 Build 0)  -->
<svg version="1.1" id="Layer_1" xmlns="http://www.w3.org/2000/svg" xmlns:xlink="http://www.w3.org/1999/xlink" x="0px" y="0px"
	 viewBox="0 0 1000 840" style="enable-background:new 0 0 1000 840;" xml:space="preserve">
<style type="text/css">
	.st0{fill:#010101;}
	.st1{fill:#FFFFFF;}
</style>
<g>
	<path class="st0" d="M867.5,402.9c-0.1-16.5-6.7-33.1-14.1-45.7c0,0-103.8-178.4-104.7-179.8l-0.1-0.2l0,0
		c-11.4-18.2-31.2-30.7-54-32H305.4c-22.8,1.3-42.5,13.7-54,32l0,0l-0.1,0.2c-0.9,1.4-104.7,179.8-104.7,179.8
		c-7.4,12.6-14,29.3-14.1,45.7c-0.2,23.7,11.1,44.9,28.6,58.1l0,0L432.6,668c21.4,15.5,42.1,26.9,67.4,26.9
		c25.3,0,46-11.4,67.4-26.9l271.5-206.9l0,0C856.4,447.8,867.7,426.6,867.5,402.9z"/>
	<g>
		<path class="st1" d="M253.8,432.8c18.2,0,32.9-3.2,32.9-3.2l1.8,9.6c0,0-13,4-33.9,4c-30.7,0-46.1-5.6-46.1-47.9
			c0-12.6,1.8-24.4,4.8-31.5c5.4-12.6,17.4-16.4,38.9-16.4c16.6,0,28.7,1.8,34.9,9.4c5,6.4,7,15.2,7,30.9c0,3.6-0.2,7-0.4,10.8
			c-3.4,0.2-16,1.6-31.1,1.6c-14.4,0-27.7-0.8-27.7-0.8l-6.2-4.2c-1.2-0.8-2-1.4-3.6-1.4c-3.8,0-3.4,3.6-3.4,6.2
			c0,8.4,0.2,19,6,25.4C232.6,430.8,241.4,432.8,253.8,432.8z M253.4,357.5c-29.5,0-30.3,5.2-31.5,31.1c13.8,2.2,30.1,1.8,30.1,1.8
			s16.6,0.4,28.7-0.8C280.7,360.5,275.1,357.5,253.4,357.5z"/>
		<path class="st1" d="M366.6,317c0,0-6.4-0.8-12.6-0.8c-6.2,0-12.4,0.4-15.2,3.4c-3,3.4-3.4,9.8-3.4,16.6v12.4h29.5v9.8h-29.5v70.7
			c0,2.6,0.4,3.2,2.8,3.6l5.2,1v8h-28.7V434l5.2-1c2.4-0.6,2.8-1.2,2.8-3.6v-70.9h-17.6v-9.8h17.6V336c0-10,0.6-19.6,9-25.4
			c5-3.6,13-4.2,20.4-4.2c7,0,15.2,1.4,15.2,1.4L366.6,317z"/>
		<path class="st1" d="M376.1,441.8V434l5.2-1c2.4-0.6,2.8-1.2,2.8-3.6v-68.1c0-2.6-0.4-3.2-2.8-3.6l-5.2-1v-8h20.6v80.6
			c0,2.6,0.4,3.2,2.8,3.6l5.2,1v8H376.1z M380.3,323.6v-15.2h15.8v15.2H380.3z"/>
		<path class="st1" d="M491.9,351.5l-1.6,9.4c0,0-14.4-3.2-29.3-3.2c-25.4,0-31.1,5.6-31.1,37.7c0,32.1,5.6,37.7,31.1,37.7
			c14.8,0,29.3-3.2,29.3-3.2l1.6,9.4c0,0-15.4,4-32.9,4c-31.3,0-42.3-8.4-42.3-47.9c0-39.5,11-47.9,42.3-47.9
			C476.5,347.5,491.9,351.5,491.9,351.5z"/>
		<path class="st1" d="M546.8,443.2c-35.9,0-42.3-8.4-42.3-47.9c0-39.5,6.4-47.9,42.3-47.9c35.9,0,42.3,8.4,42.3,47.9
			C589.1,434.8,582.7,443.2,546.8,443.2z M546.8,357.5c-26.5,0-29.1,4-29.1,37.9c0,33.9,2.6,37.9,29.1,37.9s29.1-4,29.1-37.9
			C575.9,361.5,573.3,357.5,546.8,357.5z"/>
		<path class="st1" d="M675.7,441.8l-0.8-5c-0.2-1.2-0.6-3.2-3.4-3.2c-1.4,0-2.8,1-4,1.8l-9.6,6.4c0,0-7.6,1.4-17,1.4
			c-30.5,0-35.5-19.6-35.5-47.9c0-27.3,4.8-47.9,37.1-47.9c15.2,0,29.5,2.6,32.1,3.2V321c0-2.6-0.4-3.2-2.8-3.6l-5.2-1v-8h20.6
			v120.8c0,2.6,0.4,3.2,2.8,3.6l5.2,1v8H675.7z M674.4,360.1c-2.4-0.4-15.8-2.4-27.9-2.4c-23.2,0-28.1,7.8-28.1,37.7
			c0,30.1,4.8,37.5,28.1,37.5c14,0,27.9-4,27.9-4V360.1z"/>
		<path class="st1" d="M751.2,432.8c18.2,0,32.9-3.2,32.9-3.2l1.8,9.6c0,0-13,4-33.9,4c-30.7,0-46.1-5.6-46.1-47.9
			c0-12.6,1.8-24.4,4.8-31.5c5.4-12.6,17.4-16.4,38.9-16.4c16.6,0,28.7,1.8,34.9,9.4c5,6.4,7,15.2,7,30.9c0,3.6-0.2,7-0.4,10.8
			c-3.4,0.2-16,1.6-31.1,1.6c-14.4,0-27.7-0.8-27.7-0.8l-6.2-4.2c-1.2-0.8-2-1.4-3.6-1.4c-3.8,0-3.4,3.6-3.4,6.2
			c0,8.4,0.2,19,6,25.4C729.9,430.8,738.7,432.8,751.2,432.8z M750.8,357.5c-29.5,0-30.3,5.2-31.5,31.1c13.8,2.2,30.1,1.8,30.1,1.8
			s16.6,0.4,28.7-0.8C778,360.5,772.4,357.5,750.8,357.5z"/>
	</g>
</g>
</svg>
