<svg id="Layer_1" data-name="Layer 1" xmlns="http://www.w3.org/2000/svg" viewBox="0 0 115.77 168.56">
    <defs>
        <style>
            .clsb-1{fill:none;}.clsb-2{clip-path:url(#clip-path);}.clsb-3{clip-path:url(#clip-path-2);}.clsb-4{opacity:0.55;}.clsb-5{fill:#26957a;}.clsb-6{fill:#3ea993;}.clsb-7{fill:#0e8161;}.clsb-8{clip-path:url(#clip-path-3);}.clsb-9{fill:#96d0c4;}.clsb-10{fill:#add9d0;}
        </style>
        <clipPath id="clip-path">
            <rect class="clsb-1" x="25.57" y="192.45" width="114.64" height="147.24"
                  transform="translate(-193.6 300.93) rotate(-79.88)"/>
        </clipPath>
        <clipPath id="clip-path-2">
            <path class="clsb-1"
                  d="M146.52,219.2a6.46,6.46,0,0,0-.78-.07L21.07,217.79a5.12,5.12,0,0,0-5.18,5.06l-.14,13.61,134.91,1.45.15-13.6a5.12,5.12,0,0,0-4.14-5.08Z"/>
        </clipPath>
        <clipPath id="clip-path-3">
            <rect class="clsb-1" width="117.04" height="168.56"/>
        </clipPath>
    </defs>
    <rect class="clsb-5" x="51.61" y="73.6" width="2.72" height="4.55"/>
    <rect class="clsb-6" x="48.51" y="78.08" width="8.92" height="2.76"/>
    <rect class="clsb-7" x="108.46" width="7.31" height="81.18"/>
    <rect class="clsb-7" x="69.84" y="80.83" width="38.73" height="7.31"/>
    <g class="clsb-8">
        <path class="clsb-5" d="M107.14,89.36h.13A9.77,9.77,0,0,0,117,79.59h-9.9Z"/>
    </g>
    <rect class="clsb-7" x="64.99" y="87.38" width="7.31" height="81.18"/>
    <g class="clsb-8">
        <path class="clsb-5" d="M73.63,79.2h-.14A9.78,9.78,0,0,0,63.72,89h9.91Z"/>
    </g>
    <rect class="clsb-5" y="65.92" width="81.18" height="7.31"/>
    <rect class="clsb-5" x="80.83" y="73.12" width="7.31" height="38.73"/>
    <g class="clsb-8">
        <path class="clsb-6" d="M89.36,74.55s0-.09,0-.13a9.77,9.77,0,0,0-9.78-9.77v9.9Z"/>
    </g>
    <rect class="clsb-6" x="49.88" y="63.99" width="6.22" height="11.17"/>
    <rect class="clsb-6" x="17.81" y="63.99" width="6.22" height="11.17"/>
    <rect class="clsb-9" x="32.95" y="40.66" width="7.31" height="81.18"/>
    <rect class="clsb-9" x="26.9" y="83.63" width="6.15" height="3.42"/>
    <g class="clsb-8">
        <path class="clsb-10" d="M28.25,81.05a2.14,2.14,0,1,1-2.13-2.13,2.14,2.14,0,0,1,2.13,2.13"/>
        <path class="clsb-10" d="M28.25,85.38a2.14,2.14,0,1,1-2.13-2.14,2.13,2.13,0,0,1,2.13,2.14"/>
        <path class="clsb-10" d="M28.25,89.65a2.14,2.14,0,1,1-2.13-2.14,2.14,2.14,0,0,1,2.13,2.14"/>
    </g>
    <rect class="clsb-10" x="31.13" y="81.35" width="11.06" height="8.06"/>
</svg>
