<?xml version="1.0" encoding="utf-8"?>
<!-- Generator: Adobe Illustrator 25.0.0, SVG Export Plug-In . SVG Version: 6.00 Build 0)  -->
<svg version="1.1" id="Lag_1" xmlns="http://www.w3.org/2000/svg" xmlns:xlink="http://www.w3.org/1999/xlink" x="0px" y="0px"
	 viewBox="0 0 438.8 470.4" style="enable-background:new 0 0 438.8 470.4;" xml:space="preserve">
<style type="text/css">
	.st0{fill:#ECECE9;}
	.st1{clip-path:url(#SVGID_2_);}
	.st2{fill:#FBA919;}
	.st3{fill:#FEDA1E;}
	.st4{fill:#FFF0C6;}
	.st5{clip-path:url(#SVGID_4_);}
	.st6{clip-path:url(#SVGID_6_);}
	.st7{opacity:0.33;}
	.st8{clip-path:url(#SVGID_8_);}
	.st9{fill:#FFC60B;}
	.st10{opacity:0.67;}
	.st11{opacity:0.61;}
	.st12{clip-path:url(#SVGID_10_);}
	.st13{clip-path:url(#SVGID_12_);}
	.st14{clip-path:url(#SVGID_14_);}
	.st15{opacity:0.2;}
	.st16{clip-path:url(#SVGID_16_);}
	.st17{fill:none;stroke:#FFFFFF;stroke-width:2;stroke-miterlimit:10;}
</style>
<g id="Lag_2_1_">
	<g id="Layer_1">
		<g id="Group_383">
			<g id="Group_359">
				<path id="Path_180" class="st0" d="M438.6,342.4V130.6c-0.1-7.5-4.3-14.4-10.9-17.8L230.7,6.5C224,3,216,3,209.4,6.5l-197,106.2
					c-6.7,3.5-10.9,10.3-11,17.8v211.8c0.1,7.5,4.3,14.4,10.9,17.8l197,106.2c6.7,3.6,14.7,3.6,21.3,0l197-106.2
					C434.3,356.8,438.5,349.9,438.6,342.4"/>
			</g>
			<g id="Group_361">
				<g>
					<g>
						<defs>
							<path id="SVGID_1_" d="M209.3,6.5l-197,106.2c-6.7,3.5-10.9,10.3-11,17.8v211.8c0.1,7.5,4.3,14.4,10.9,17.8l197,106.2
								c6.7,3.6,14.7,3.6,21.3,0l197-106.2c6.7-3.5,10.9-10.3,10.9-17.8V130.6c-0.1-7.5-4.3-14.4-10.9-17.8L230.6,6.5
								C224,3,215.9,3,209.3,6.5"/>
						</defs>
						<clipPath id="SVGID_2_">
							<use xlink:href="#SVGID_1_"  style="overflow:visible;"/>
						</clipPath>
						<g class="st1">
							<g id="Group_360">
								<rect id="Rectangle_1427" x="228.6" y="221.6" class="st2" width="12.8" height="21.6"/>
								<rect id="Rectangle_1428" x="214" y="208.8" class="st2" width="42" height="13.1"/>
								<rect id="Rectangle_1429" x="-27.1" y="87.5" class="st2" width="182.5" height="34.7"/>
								<rect id="Rectangle_1430" x="143.9" y="-294.3" class="st2" width="34.4" height="385.3"/>
								<path id="Path_181" class="st3" d="M137.6,129.9h0.6c25.5-0.1,46.1-20.8,46.1-46.4h-46.7L137.6,129.9L137.6,129.9z"/>
								<rect id="Rectangle_1431" x="-116.2" y="-294.3" class="st4" width="1157.3" height="800.1"/>
							</g>
						</g>
					</g>
				</g>
			</g>
			<g id="Group_363">
				<g>
					<g>
						<defs>
							<path id="SVGID_3_" d="M209.3,6.5l-197,106.2c-6.7,3.5-10.9,10.3-11,17.8v211.8c0.1,7.5,4.3,14.4,10.9,17.8l197,106.2
								c6.7,3.6,14.7,3.6,21.3,0l197-106.2c6.7-3.5,10.9-10.3,10.9-17.8V130.6c-0.1-7.5-4.3-14.4-10.9-17.8L230.6,6.5
								C223.9,3,215.9,3,209.3,6.5"/>
						</defs>
						<clipPath id="SVGID_4_">
							<use xlink:href="#SVGID_3_"  style="overflow:visible;"/>
						</clipPath>
						<g class="st5">
							<g id="Group_362">
								<rect id="Rectangle_1432" x="39.7" y="23.5" class="st2" width="36.6" height="201.4"/>
							</g>
						</g>
					</g>
				</g>
			</g>
			<g id="Group_368">
				<g>
					<g>
						<defs>
							<path id="SVGID_5_" d="M209.3,6.5l-197,106.2c-6.7,3.5-10.9,10.3-11,17.8v211.8c0.1,7.5,4.3,14.4,10.9,17.8l197,106.2
								c6.7,3.6,14.7,3.6,21.3,0l197-106.2c6.7-3.5,10.9-10.3,10.9-17.8V130.6c-0.1-7.5-4.3-14.4-10.9-17.8L230.6,6.5
								C224,3,215.9,3,209.3,6.5"/>
						</defs>
						<clipPath id="SVGID_6_">
							<use xlink:href="#SVGID_5_"  style="overflow:visible;"/>
						</clipPath>
						<g class="st6">
							<g id="Group_367">
								<g id="Group_366" class="st7">
									<g id="Group_365">
										<g>
											<g>
												<defs>
													<rect id="SVGID_7_" x="172.1" y="-16.1" width="85.9" height="534.6"/>
												</defs>
												<clipPath id="SVGID_8_">
													<use xlink:href="#SVGID_7_"  style="overflow:visible;"/>
												</clipPath>
												<g class="st8">
													<g id="Group_364">
														<rect id="Rectangle_1433" x="197.8" y="3.9" class="st2" width="34.4" height="511.7"/>
													</g>
												</g>
											</g>
										</g>
									</g>
								</g>
								<path id="Path_184" class="st3" d="M34.5,218.4c0,0.2,0,0.4,0,0.6c-0.1,25.5,20.5,46.3,46,46.4l0,0v-47H34.5z"/>
								<rect id="Rectangle_1435" x="294.9" y="-294.3" class="st3" width="34.4" height="800.1"/>
								<rect id="Rectangle_1436" x="220.2" y="215.6" class="st3" width="29.3" height="53"/>
								<rect id="Rectangle_1437" x="371.4" y="215.6" class="st3" width="29.3" height="53"/>
								<rect id="Rectangle_1438" x="328.8" y="113.9" class="st3" width="29" height="16.3"/>
								<path id="Path_185" class="st2" d="M351.4,142.1c0-5.6,4.6-10,10.1-10c5.6,0,10,4.6,10,10.1s-4.5,10-10.1,10
									C355.9,152.2,351.4,147.6,351.4,142.1"/>
								<rect id="Rectangle_1439" x="285.8" y="102.7" class="st9" width="52.1" height="38.3"/>
								<rect id="Rectangle_1440" x="-116.2" y="346.4" class="st9" width="258.1" height="34.7"/>
								<rect id="Rectangle_1441" x="392.1" y="421.5" class="st3" width="29.3" height="53"/>
							</g>
						</g>
					</g>
				</g>
			</g>
			<rect id="Rectangle_1442" x="79.6" y="224.9" class="st2" width="141" height="36.6"/>
			<rect id="Rectangle_1443" x="249" y="224.9" class="st2" width="122.3" height="36.6"/>
			<rect id="Rectangle_1444" x="399.6" y="224.9" class="st2" width="39" height="36.6"/>
			<rect id="Rectangle_1445" x="160.8" y="162.1" class="st9" width="277.9" height="32.3"/>
			<path id="Path_187" class="st2" d="M125.1,200.2c0-0.2,0-0.4,0-0.6c0-23.8,19-43.2,42.6-43.2v43.8H125.1z"/>
			<g id="Group_370" class="st10">
				<g id="Group_369">
					<rect id="Rectangle_1446" x="1.3" y="290.9" class="st9" width="437.3" height="32.3"/>
				</g>
			</g>
			<path id="Path_188" class="st2" d="M352.1,122.1c0-5.6,4.6-10,10.1-10c5.6,0,10,4.6,10,10.1s-4.5,10-10.1,10
				C356.6,132.2,352.1,127.7,352.1,122.1"/>
			<path id="Path_189" class="st2" d="M352.1,101.9c0-5.6,4.6-10,10.1-10c5.6,0,10,4.6,10,10.1s-4.5,10-10.1,10
				C356.6,112,352.1,107.5,352.1,101.9L352.1,101.9"/>
			<rect id="Rectangle_1447" x="31.8" y="136.8" class="st3" width="53" height="29.3"/>
			<rect id="Rectangle_1448" x="130.9" y="200.2" class="st9" width="34.4" height="154.3"/>
			<path id="Path_190" class="st2" d="M171.1,340.1c0,0.2,0,0.4,0,0.6c0.1,25.5-20.5,46.3-46,46.4l0,0v-47H171.1z"/>
			<g id="Group_373" class="st11">
				<g id="Group_372">
					<g>
						<g>
							<defs>
								<rect id="SVGID_9_" x="168.1" y="382.1" width="75.9" height="80.8"/>
							</defs>
							<clipPath id="SVGID_10_">
								<use xlink:href="#SVGID_9_"  style="overflow:visible;"/>
							</clipPath>
							<g class="st12">
								<g id="Group_371">
									<rect id="Rectangle_1449" x="188.1" y="407.8" class="st3" width="53" height="29.3"/>
								</g>
							</g>
						</g>
					</g>
				</g>
			</g>
			<g id="Group_376" class="st11">
				<g id="Group_375">
					<g>
						<g>
							<defs>
								<rect id="SVGID_11_" x="167.3" y="81.8" width="75.9" height="80.8"/>
							</defs>
							<clipPath id="SVGID_12_">
								<use xlink:href="#SVGID_11_"  style="overflow:visible;"/>
							</clipPath>
							<g class="st13">
								<g id="Group_374">
									<rect id="Rectangle_1451" x="187.3" y="107.5" class="st3" width="53" height="29.3"/>
								</g>
							</g>
						</g>
					</g>
				</g>
			</g>
			<g id="Group_381">
				<g>
					<g>
						<defs>
							<path id="SVGID_13_" d="M208.7,2.7L11.9,109.6C5.3,113.1,1.1,120,1,127.5v213.2c0.1,7.6,4.3,14.5,10.9,18l196.8,106.9
								c6.6,3.6,14.7,3.6,21.3,0l196.8-106.9c6.7-3.5,10.9-10.4,10.9-18V127.5c0-7.6-4.2-14.5-10.9-18L230,2.7
								C223.4-0.9,215.3-0.9,208.7,2.7"/>
						</defs>
						<clipPath id="SVGID_14_">
							<use xlink:href="#SVGID_13_"  style="overflow:visible;"/>
						</clipPath>
						<g class="st14">
							<g id="Group_380">
								<g id="Group_379" class="st15">
									<g id="Group_378">
										<g>
											<g>
												<defs>
													<rect id="SVGID_15_" x="2.6" y="24.2" width="466.8" height="83.7"/>
												</defs>
												<clipPath id="SVGID_16_">
													<use xlink:href="#SVGID_15_"  style="overflow:visible;"/>
												</clipPath>
												<g class="st16">
													<g id="Group_377">
														<rect id="Rectangle_1453" x="5.5" y="49.9" class="st9" width="444" height="32.3"/>
													</g>
												</g>
											</g>
										</g>
									</g>
								</g>
							</g>
						</g>
					</g>
				</g>
			</g>
			<g id="Group_382">
				<path id="Path_192" class="st17" d="M437.8,342.7V129.6c0-7.6-4.2-14.5-10.9-18L230.1,4.7c-6.6-3.6-14.7-3.6-21.3,0L11.9,111.6
					C5.3,115.1,1.1,122,1,129.6v213.2c0.1,7.6,4.2,14.5,10.9,18l196.8,106.9c6.6,3.6,14.7,3.6,21.3,0l196.8-106.9
					C433.5,357.2,437.7,350.3,437.8,342.7z"/>
			</g>
		</g>
	</g>
</g>
</svg>
